<svg width="232" height="317" viewBox="0 0 232 317" fill="none" xmlns="http://www.w3.org/2000/svg">
<g clip-path="url(#clip0_20_67)">
<path d="M102.582 313.237C103.112 313.751 103.598 314.309 104.036 314.903C104.136 315.04 104.194 315.203 104.202 315.373C104.21 315.542 104.167 315.71 104.079 315.855C103.992 316 103.863 316.116 103.71 316.188C103.556 316.26 103.385 316.285 103.217 316.26C99.6608 315.737 95.7948 315.005 91.6961 313.978C87.6112 312.959 83.5842 311.72 79.6327 310.267C78.4021 311.271 77.1102 312.282 75.7569 313.3C74.2357 314.433 72.7435 315.49 71.2804 316.468C71.194 316.524 71.0941 316.554 70.9915 316.557C70.8889 316.559 70.7877 316.533 70.699 316.481C70.6103 316.43 70.5375 316.354 70.4888 316.264C70.4401 316.174 70.4173 316.072 70.4228 315.969C70.4768 315.449 70.5873 314.935 70.7523 314.438C71.5517 312.016 73.2909 311.047 72.976 310.48C72.8985 310.33 72.5351 309.909 68.6497 310.848C66.7118 311.333 65.113 311.817 63.9212 312.248C63.8836 312.262 63.8429 312.265 63.8037 312.257C63.7645 312.249 63.7284 312.23 63.6996 312.202C63.6708 312.174 63.6504 312.139 63.6407 312.1C63.6311 312.061 63.6326 312.02 63.6451 311.982C64.4657 309.423 65.9582 307.131 67.9666 305.345C69.5473 303.961 71.4031 302.927 73.4121 302.312L73.0632 300.859C72.2299 297.425 71.3983 293.987 70.5682 290.544L80.7082 289.12C80.7082 292.808 80.6905 296.493 80.6549 300.175C80.6549 300.922 80.6549 301.672 80.6549 302.419C86.4594 302.106 92.2588 303.122 97.6115 305.388C99.9267 306.377 102.136 307.598 104.205 309.032C104.339 309.123 104.439 309.257 104.489 309.412C104.539 309.566 104.536 309.733 104.48 309.886C104.425 310.039 104.32 310.169 104.183 310.255C104.045 310.342 103.882 310.38 103.721 310.364L103.285 310.335C101.198 310.209 99.136 310.106 97.098 310.025C99.1547 310.646 101.034 311.747 102.582 313.237Z" fill="#FFB238"/>
<path d="M80.6888 289.115C80.6888 292.803 80.6711 296.489 80.6356 300.171C79.5697 300.171 78.3198 300.238 76.8567 300.374C75.2482 300.524 74.0225 300.708 73.0439 300.859C72.2106 297.425 71.3789 293.987 70.5488 290.544L80.6888 289.115Z" fill="#E0AA26"/>
<path d="M139.218 305.384C139.748 305.898 140.234 306.456 140.672 307.05C140.772 307.187 140.83 307.35 140.838 307.519C140.846 307.689 140.803 307.857 140.715 308.002C140.628 308.147 140.499 308.263 140.346 308.335C140.192 308.407 140.021 308.432 139.853 308.407C136.292 307.883 132.431 307.147 128.332 306.125C124.247 305.105 120.22 303.867 116.269 302.414C115.038 303.418 113.746 304.429 112.393 305.446C110.872 306.574 109.378 307.63 107.911 308.615C107.823 308.673 107.72 308.706 107.615 308.708C107.509 308.71 107.405 308.682 107.314 308.627C107.224 308.572 107.151 308.493 107.104 308.398C107.057 308.303 107.038 308.197 107.049 308.092C107.106 307.571 107.218 307.058 107.383 306.561C108.183 304.138 109.922 303.169 109.607 302.603C109.53 302.452 109.166 302.031 105.281 302.971C103.68 303.355 102.1 303.823 100.547 304.371C100.509 304.383 100.469 304.385 100.43 304.376C100.391 304.367 100.355 304.347 100.327 304.319C100.298 304.291 100.278 304.256 100.268 304.217C100.259 304.178 100.26 304.138 100.271 304.1C100.99 301.812 102.255 299.734 103.958 298.046C105.661 296.357 107.75 295.109 110.043 294.41L109.694 292.957C108.861 289.523 108.029 286.085 107.199 282.642L117.339 281.218C117.339 284.906 117.322 288.592 117.286 292.274C117.286 293.02 117.286 293.771 117.286 294.517C123.091 294.204 128.89 295.22 134.243 297.487C136.557 298.476 138.766 299.695 140.836 301.125C140.971 301.217 141.071 301.35 141.12 301.505C141.17 301.66 141.167 301.827 141.112 301.979C141.056 302.132 140.951 302.262 140.814 302.349C140.676 302.435 140.514 302.473 140.352 302.457H139.916C137.826 302.331 135.764 302.228 133.729 302.147C135.79 302.775 137.671 303.884 139.218 305.384Z" fill="#FFB238"/>
<path d="M117.334 281.262C117.334 284.95 117.317 288.635 117.281 292.317C116.215 292.317 114.965 292.385 113.502 292.521C111.894 292.671 110.668 292.855 109.69 293.005C108.856 289.572 108.025 286.134 107.194 282.691L117.334 281.262Z" fill="#E0AA26"/>
<path d="M84.0511 93.3921C86.4351 93.3921 88.3678 91.3011 88.3678 88.7218C88.3678 86.1424 86.4351 84.0514 84.0511 84.0514C81.6671 84.0514 79.7344 86.1424 79.7344 88.7218C79.7344 91.3011 81.6671 93.3921 84.0511 93.3921Z" fill="white"/>
<path d="M188.552 87.3943C190.174 87.3943 191.488 85.8564 191.488 83.9594C191.488 82.0623 190.174 80.5245 188.552 80.5245C186.931 80.5245 185.616 82.0623 185.616 83.9594C185.616 85.8564 186.931 87.3943 188.552 87.3943Z" fill="white"/>
<path d="M228.483 216.783C225.474 229.554 219.999 241.883 210.479 252.77C188.954 277.391 158.292 281.383 113.623 286.542C91.4806 289.089 69.1613 289.75 46.9065 288.519C23.3931 287.225 0.0301819 283.956 -22.9353 278.747C-44.0242 271.641 -64.4 262.572 -83.795 251.66C-83.795 251.66 -108.46 237.712 -113.832 221.23C-114.462 219.292 -115.969 214.704 -114.016 211.129C-112.916 214.225 -111.601 217.241 -110.083 220.155C-103.344 233.085 -87.2008 254.267 -27.6153 270.957C38.4573 289.464 91.1826 283.747 126.011 279.614C161.901 275.356 180.583 268.844 197.016 256.112C213.827 243.085 223.294 227.403 228.483 216.783Z" fill="#0D9AD2"/>
<path d="M231.806 183.611C231.845 194.579 231.07 205.843 228.483 216.783C225.474 229.554 219.999 241.883 210.48 252.77C188.954 277.391 158.292 281.383 113.623 286.542C91.4805 289.089 69.1613 289.75 46.9065 288.519C46.7773 287.337 46.6561 286.139 46.5431 284.924C46.2863 282.168 46.0587 279.324 45.8406 276.397C45.3535 269.911 45.4022 263.395 45.986 256.917C63.7275 257.522 73.5477 256.854 73.5477 256.854C132.218 252.871 161.94 250.556 181.159 234.834C203.837 216.279 212.524 191.314 214.932 184.12C215.733 181.736 216.435 179.383 217.039 177.061C218.095 175.963 219.135 174.832 220.159 173.669C224.443 176.481 228.356 179.821 231.806 183.611Z" fill="#40BEF0"/>
<path d="M230.784 159.387C231.312 167.105 231.806 175.273 231.83 183.611C228.387 179.819 224.481 176.476 220.203 173.66C222.234 171.35 224.203 168.901 226.109 166.31C227.736 164.059 229.295 161.751 230.784 159.387Z" fill="#08A9DF"/>
<path d="M230.784 159.387C229.311 161.748 227.746 164.056 226.089 166.31C224.184 168.894 222.215 171.344 220.183 173.66C219.529 173.229 218.866 172.797 218.192 172.381C223.25 149.223 219.786 129.849 217.393 117.989C220.143 114.68 222.205 110.855 223.459 106.739C228.483 126.482 229.757 144.402 230.542 155.918C230.6 157.062 230.677 158.22 230.784 159.387Z" fill="#1BB3E2"/>
<path d="M218.187 172.381C218.861 172.797 219.525 173.229 220.179 173.66C219.152 174.829 218.112 175.959 217.059 177.051C217.462 175.478 217.839 173.921 218.187 172.381Z" fill="#08A9DF"/>
<path d="M175.927 132.915C169.965 139.544 162.517 144.664 154.193 147.857C151.531 148.867 148.791 149.661 146.001 150.231C145.818 150.269 145.628 150.251 145.455 150.18C145.283 150.11 145.135 149.989 145.032 149.833C143.316 147.312 141.939 144.575 140.938 141.694C139.485 137.436 136.684 126.729 140.565 124.006C143.68 121.816 148.317 126.709 158.747 129.573C164.094 131.025 169.638 131.619 175.171 131.331C175.355 131.33 175.536 131.381 175.692 131.479C175.848 131.576 175.973 131.717 176.053 131.883C176.132 132.049 176.162 132.235 176.14 132.418C176.118 132.6 176.044 132.773 175.927 132.915ZM217.369 117.989C216.567 118.952 215.708 119.866 214.796 120.726C205.107 129.844 190.795 131.966 179.667 127.993C157.817 120.174 148.661 88.9543 159.547 70.2681C166.688 57.9867 180.166 55.0896 180.985 54.9297C184.337 54.2733 187.776 54.18 191.159 54.6535C182.892 43.4046 172.562 33.8294 160.719 26.4378C129.713 7.16052 97.6551 8.91918 76.7307 10.0674C57.9476 11.0993 33.6125 12.2911 9.60194 27.2226C-21.8211 46.7469 -36.5152 79.6572 -44.0391 102.689C-42.9991 115.787 -39.7098 128.608 -34.3157 140.59C-20.3047 171.533 4.00141 187.608 18.0996 196.062C34.7413 193.64 37.6045 194.817 39.9009 196.982C43.4279 200.296 44.673 205 45.0509 209.181C49.6534 210.892 54.2269 212.34 58.7325 213.542C62.1963 207.104 66.3326 201.051 71.072 195.485C92.9557 169.74 120.537 162.168 129.456 160.119C157.866 153.564 194.182 157.483 218.168 172.376C223.226 149.223 219.762 129.849 217.369 117.989ZM119.311 124.665C106.279 142.653 81.3089 147.92 61.9203 137.692C42.5316 127.465 34.7462 105.039 39.3245 86.2364C39.7799 84.3566 45.2447 63.4661 65.7138 55.3948C83.6781 48.3118 104.297 54.6245 116.346 68.7517C129.18 83.8043 131.903 107.282 119.311 124.665Z" fill="#32BCE3"/>
<path d="M220.581 76.3386C216.556 68.5648 210.216 62.2332 202.437 58.2193C198.916 56.401 195.115 55.1859 191.193 54.6245C187.809 54.1509 184.371 54.2443 181.019 54.9006C180.2 55.0605 166.722 57.9576 159.581 70.2391C148.709 88.9252 157.851 120.14 179.701 127.964C190.844 131.947 205.16 129.825 214.83 120.697C215.738 119.843 216.593 118.935 217.393 117.979C220.143 114.67 222.205 110.846 223.459 106.73C226.593 96.5024 225.004 85.0446 220.581 76.3386ZM219.806 94.3126C219.157 98.9664 217.539 103.432 215.058 107.422C213.114 110.557 210.627 113.32 207.713 115.581C198.993 122.315 186.396 124.49 175.554 119.539C161.882 113.304 156.921 98.4549 157.41 87.2151C157.483 85.626 158.558 67.526 172.913 59.8374C178.979 56.5914 186.188 55.855 193.116 57.2746C197.291 58.1352 201.277 59.7402 204.884 62.0127C210.273 65.3277 214.563 70.1598 217.217 75.9033C219.87 81.6467 220.769 88.0458 219.801 94.2981L219.806 94.3126Z" fill="#E7E2E6"/>
<path d="M218.187 172.381C217.864 173.921 217.488 175.481 217.059 177.061C192.515 202.738 161.068 210.407 144.073 214.549C135.556 216.628 99.8062 224.631 58.7518 213.58C62.2157 207.143 66.352 201.09 71.0914 195.524C92.9751 169.779 120.556 162.207 129.475 160.158C157.866 153.569 194.182 157.488 218.187 172.381Z" fill="#49C8F5"/>
<path d="M217.039 177.061C216.429 179.383 215.726 181.736 214.932 184.12C212.509 191.314 203.837 216.279 181.159 234.834C161.94 250.56 132.227 252.871 73.5476 256.854C73.5476 256.854 63.7274 257.522 45.986 256.917C47.0615 244.805 50.2881 229.219 58.7324 213.556C99.7868 224.631 135.536 216.628 144.053 214.525C161.049 210.407 192.51 202.743 217.039 177.061Z" fill="#38C7F3"/>
<path d="M216.623 74.7011C213.918 69.5034 209.865 65.1291 204.889 62.0369C201.282 59.7644 197.296 58.1594 193.121 57.2988C186.193 55.8793 178.984 56.6156 172.918 59.8616C158.563 67.5502 157.488 85.6502 157.415 87.2393C156.931 98.4791 161.887 113.328 175.559 119.563C186.411 124.515 199.012 122.339 207.718 115.605C210.632 113.344 213.119 110.581 215.063 107.447C217.544 103.457 219.162 98.9906 219.81 94.3368C220.797 87.6195 219.683 80.7615 216.623 74.7011ZM182.152 109.418C174.294 109.418 167.928 101.856 167.928 92.5346C167.928 83.2133 174.294 75.6507 182.152 75.6507C190.01 75.6507 196.376 83.2084 196.376 92.5346C196.376 101.861 190.006 109.409 182.152 109.409V109.418Z" fill="white"/>
<path d="M202.437 58.229C198.916 56.4107 195.115 55.1956 191.193 54.6342C182.926 43.3852 172.596 33.8101 160.753 26.4184C129.747 7.14118 97.6891 8.89981 76.7646 10.048C57.9816 11.0799 33.6464 12.2718 9.6359 27.2033C-21.821 46.747 -36.5151 79.6573 -44.039 102.689C-44.5659 95.9514 -44.582 89.1833 -44.0875 82.443C-43.7257 76.9394 -43.0202 71.4639 -41.9752 66.0484C-34.0152 52.2167 -24.1804 39.4508 -12.0443 29.2574C21.4813 1.09978 63.3156 0.35369 79.2403 0.0678505C93.634 -0.193766 135.72 -0.944708 173.228 27.2808C184.65 35.8643 194.528 46.33 202.437 58.229Z" fill="#1BB3E2"/>
<path d="M182.152 109.409C190.008 109.409 196.376 101.85 196.376 92.5249C196.376 83.2002 190.008 75.641 182.152 75.641C174.296 75.641 167.928 83.2002 167.928 92.5249C167.928 101.85 174.296 109.409 182.152 109.409Z" fill="#211F20"/>
<path d="M175.195 131.331C175.377 131.334 175.555 131.389 175.708 131.488C175.86 131.588 175.982 131.728 176.058 131.894C176.134 132.059 176.163 132.243 176.139 132.424C176.116 132.604 176.043 132.775 175.927 132.916C169.965 139.544 162.517 144.664 154.193 147.857C151.531 148.867 148.791 149.661 146.001 150.231C145.818 150.269 145.628 150.251 145.455 150.18C145.283 150.11 145.135 149.989 145.032 149.833C143.316 147.312 141.939 144.575 140.938 141.694C139.485 137.436 136.684 126.729 140.565 124.006C143.68 121.816 148.317 126.709 158.747 129.573C164.102 131.028 169.654 131.621 175.195 131.331Z" fill="#FEB044"/>
<path d="M116.346 68.7517C104.297 54.6245 83.6781 48.3118 65.7138 55.3948C45.2447 63.4613 39.7799 84.3567 39.3245 86.2364C34.7462 105.039 42.5946 127.494 61.9203 137.692C81.246 147.891 106.279 142.653 119.311 124.665C131.903 107.282 129.18 83.8043 116.346 68.7517ZM81.7111 132.911C61.6103 132.828 46.422 116.463 43.4376 99.0992C41.2914 86.5659 45.298 72.2739 55.8062 63.1464C71.2416 49.741 96.5311 51.0878 110.552 65.7868C124.573 80.4857 120.038 100.669 119.791 101.74C115.886 118.115 100.945 132.988 81.7111 132.911Z" fill="#E7E2E6"/>
<path d="M110.571 65.7867C96.5215 51.0878 71.2513 49.741 55.8256 63.1464C45.3174 72.2739 41.2914 86.5658 43.457 99.0992C46.4317 116.463 61.6199 132.828 81.7304 132.911C100.974 132.988 115.905 118.115 119.83 101.74C120.057 100.693 124.553 80.4324 110.571 65.7867ZM78.6589 116.09C74.9514 116.091 71.327 114.992 68.2438 112.933C65.1607 110.874 62.7574 107.947 61.3379 104.522C59.9185 101.097 59.5466 97.3279 60.2693 93.6915C60.992 90.0552 62.7769 86.7148 65.3981 84.0929C68.0194 81.471 71.3592 79.6853 74.9954 78.9616C78.6316 78.238 82.4007 78.6089 85.8261 80.0275C89.2514 81.446 92.1792 83.8485 94.239 86.9311C96.2989 90.0137 97.3984 93.6379 97.3984 97.3454C97.3984 102.316 95.4242 107.083 91.91 110.598C88.3958 114.113 83.6294 116.088 78.6589 116.09Z" fill="white"/>
<path d="M78.6589 78.606C82.3666 78.605 85.9913 79.7036 89.0745 81.7629C92.1578 83.8222 94.561 86.7496 95.9803 90.1749C97.3996 93.6001 97.7712 97.3694 97.0481 101.006C96.325 104.642 94.5397 107.983 91.918 110.604C89.2962 113.226 85.9559 115.012 82.3194 115.735C78.6829 116.458 74.9137 116.086 71.4884 114.667C68.0631 113.248 65.1357 110.844 63.0764 107.761C61.0172 104.678 59.9185 101.053 59.9194 97.3454C59.9194 92.3754 61.8938 87.6089 65.4082 84.0946C68.9225 80.5803 73.6889 78.606 78.6589 78.606Z" fill="#211F20"/>
<path d="M58.7325 213.556C50.2881 229.219 47.0615 244.79 45.986 256.917C24.9792 256.2 -7.12695 253.705 -47.1784 246.215C-54.1113 244.921 -69.0863 241.922 -72.9089 231.865C-76.1984 223.212 -69.6629 213.455 -67.0952 209.288C-49.6541 181.14 -60.4288 161.635 -48.9322 119.302C-47.7356 114.903 -46.1853 109.191 -44.0584 102.694C-43.0118 115.792 -39.716 128.611 -34.3156 140.59C-20.3046 171.533 4.00143 187.608 18.0996 196.062C13.0078 196.798 6.62728 197.874 -1.42468 199.361L-4.61253 199.952C-18.546 202.564 -27.2326 204.458 -36.0355 211.333C-40.2795 214.651 -45.4586 218.692 -45.1872 223.701C-44.6689 233.391 -24.2289 239.204 -16.2399 241.515C-4.21526 244.955 5.31435 244.844 11.2201 244.732C21.5975 244.529 26.7862 244.427 32.0234 241.171C44.0142 233.72 45.0267 218.013 45.1042 216.279C45.2605 213.915 45.246 211.543 45.0606 209.181C49.6535 210.892 54.2269 212.34 58.7325 213.556Z" fill="#1BB3E2"/>
<path d="M46.9065 288.519C23.3931 287.225 0.0301819 283.956 -22.9353 278.747C-44.0242 271.641 -64.4 262.572 -83.795 251.66C-83.795 251.66 -108.46 237.712 -113.832 221.23C-114.462 219.292 -115.969 214.704 -114.016 211.129C-113.905 210.922 -113.782 210.722 -113.648 210.528C-113.222 209.908 -111.391 207.452 -104.991 206.507C-94.2984 204.933 -89.7298 210.354 -84.6089 208.673C-76.2953 205.96 -75.4039 187.492 -75.2682 185.234C-74.6723 174.033 -69.4545 113.721 -41.9945 66.0532C-43.0333 71.4707 -43.7323 76.9479 -44.0875 82.4527C-44.5821 89.193 -44.5659 95.961 -44.039 102.699C-46.1659 109.196 -47.7162 114.908 -48.9128 119.307C-60.3852 161.635 -49.6541 181.14 -67.0758 209.288C-69.6629 213.464 -76.1984 223.212 -72.8895 231.865C-69.067 241.922 -54.0919 244.921 -47.159 246.215C-7.10756 253.705 24.9986 256.2 46.0054 256.917C45.4215 263.395 45.3729 269.911 45.86 276.397C46.0829 279.304 46.3057 282.168 46.5625 284.924C46.6626 286.142 46.7773 287.34 46.9065 288.519Z" fill="#08A9DF"/>
<path d="M45.0945 216.279C45.017 217.887 44.1256 231.472 34.4942 239.388C33.7059 240.037 32.8757 240.632 32.0089 241.171C26.7717 244.427 21.583 244.529 11.2056 244.732C5.29982 244.844 -4.22979 244.955 -16.2544 241.515C-24.2434 239.229 -44.6834 233.381 -45.2018 223.701C-45.2573 222.223 -44.8964 220.759 -44.1602 219.477C-42.4694 216.347 -39.0296 213.663 -36.0501 211.333C-27.2472 204.458 -18.5605 202.564 -4.62706 199.952L-1.43924 199.361L-1.1873 200.723C-4.05539 201.207 -6.28397 202.108 -8.09106 204.157C-8.81777 204.976 -10.0532 206.376 -9.69952 207.747C-8.81293 211.187 1.28351 211.173 11.9468 211.085C30.2212 210.935 32.6726 208.179 33.5931 206.633C33.9328 206.043 34.1981 205.413 34.3828 204.758C37.9356 206.402 41.4884 207.877 45.0412 209.181C45.2298 211.543 45.2476 213.915 45.0945 216.279Z" fill="#06AADF"/>
<path d="M39.901 196.982C43.4279 200.296 44.673 205 45.0509 209.181C41.4981 207.867 37.9453 206.392 34.3925 204.758C34.9593 202.743 34.8334 200.398 33.6028 198.838C31.8151 196.58 28.821 197.385 22.2273 198.489C21.646 198.16 21.0694 197.821 20.4929 197.481L18.0996 196.062C34.7316 193.649 37.5949 194.817 39.901 196.982Z" fill="#08A9DF"/>
<path d="M33.6028 198.838C34.8334 200.398 34.9593 202.743 34.3925 204.758C30.3391 202.898 26.284 200.808 22.2274 198.489C28.8114 197.404 31.8054 196.58 33.6028 198.838Z" fill="#18B4E4"/>
<path d="M34.3828 204.758C34.198 205.413 33.9328 206.043 33.5931 206.633C32.6726 208.198 30.2018 210.935 11.9468 211.085C1.28833 211.173 -8.81295 211.187 -9.69954 207.747C-10.0532 206.376 -8.81779 204.976 -8.09108 204.157C-6.28399 202.108 -4.05541 201.197 -1.18732 200.723C2.05865 200.19 6.12825 200.238 11.3267 199.831C15.7741 199.492 19.335 198.969 22.2128 198.489C26.2694 200.815 30.3261 202.904 34.3828 204.758Z" fill="#18B4E4"/>
<path d="M20.4784 197.481C21.0549 197.821 21.6314 198.16 22.2128 198.489C19.335 198.974 15.7741 199.492 11.3266 199.831C6.12824 200.228 2.05864 200.19 -1.18733 200.723L-1.43927 199.361C6.61269 197.874 12.9932 196.798 18.085 196.062L20.4784 197.481Z" fill="#08A9DF"/>
<path d="M34.4942 239.388C33.7059 240.037 32.8757 240.632 32.0089 241.171C26.7717 244.427 21.583 244.529 11.2056 244.732C5.29982 244.844 -4.22979 244.955 -16.2544 241.515C-24.2434 239.229 -44.6834 233.381 -45.2018 223.701C-45.2573 222.223 -44.8964 220.759 -44.1602 219.477C-38.7922 222.262 -29.5629 229.21 -14.7719 234.093C0.983158 239.296 15.498 239.669 21.5927 239.781C26.6409 239.878 30.9527 239.669 34.4942 239.388Z" fill="#0D9AD2"/>
</g>
<defs>
<clipPath id="clip0_20_67">
<rect width="346.811" height="316.57" fill="white" transform="translate(-115)"/>
</clipPath>
</defs>
</svg>
