<svg width="190" height="64" viewBox="0 0 190 64" fill="none" xmlns="http://www.w3.org/2000/svg">
<path d="M18.2 29.088L18.308 42.444C18.308 43.236 18.02 43.92 17.444 44.496C16.892 45.048 16.22 45.324 15.428 45.324C14.612 45.324 13.916 45.036 13.34 44.46C12.764 43.884 12.476 43.164 12.476 42.3V21.744C12.476 20.904 12.752 20.196 13.304 19.62C13.856 19.044 14.552 18.756 15.392 18.756C16.304 18.756 17.096 19.212 17.768 20.124L29.396 35.028L29.288 21.672C29.288 20.88 29.564 20.196 30.116 19.62C30.692 19.02 31.388 18.72 32.204 18.72C33.02 18.72 33.704 19.008 34.256 19.584C34.808 20.16 35.084 20.856 35.084 21.672V42.444C35.084 43.26 34.808 43.944 34.256 44.496C33.704 45.048 32.996 45.324 32.132 45.324C31.268 45.324 30.5 44.904 29.828 44.064L18.2 29.088ZM43.2178 40.104L42.2458 43.38C41.8138 44.724 40.8778 45.396 39.4378 45.396C38.6458 45.396 37.9618 45.132 37.3858 44.604C36.8338 44.052 36.5577 43.368 36.5577 42.552C36.5577 42.024 36.6417 41.544 36.8098 41.112L43.9738 21.96C44.7898 19.8 46.2058 18.72 48.2218 18.72C50.2138 18.72 51.6178 19.8 52.4338 21.96L59.4898 41.148C59.5858 41.388 59.6578 41.664 59.7058 41.976C59.7538 42.288 59.7778 42.588 59.7778 42.876C59.7778 43.548 59.4898 44.136 58.9138 44.64C58.3618 45.12 57.6898 45.36 56.8978 45.36C55.5538 45.36 54.6658 44.7 54.2338 43.38L53.1898 40.104H43.2178ZM48.2218 24.768L44.8738 34.848L51.4258 34.884L48.2218 24.768ZM68.9985 28.26L66.9465 42.552C66.6825 44.4 65.7105 45.324 64.0305 45.324C63.1425 45.324 62.4225 45.048 61.8705 44.496C61.3425 43.92 61.0785 43.188 61.0785 42.3C61.0785 42.06 61.1025 41.868 61.1505 41.724L64.4985 21.852C64.6425 20.988 65.0865 20.256 65.8305 19.656C66.5745 19.056 67.4265 18.756 68.3865 18.756C69.3225 18.756 70.1145 19.008 70.7625 19.512C71.4345 19.992 71.9265 20.712 72.2385 21.672L76.3065 35.388L80.4465 21.672C81.0225 19.728 82.3065 18.756 84.2985 18.756C85.2585 18.756 86.0985 19.044 86.8185 19.62C87.5385 20.196 87.9825 20.94 88.1505 21.852L91.4985 41.724L91.5705 42.3C91.5705 43.164 91.2945 43.884 90.7425 44.46C90.1905 45.036 89.4945 45.324 88.6545 45.324C86.9505 45.324 85.9665 44.4 85.7025 42.552L83.6145 28.26L79.2945 42.984C79.0545 43.872 78.7185 44.484 78.2865 44.82C77.8545 45.156 77.1945 45.324 76.3065 45.324C74.8185 45.324 73.8225 44.544 73.3185 42.984L68.9985 28.26ZM99.5549 39.744H106.179C106.923 39.744 107.559 40.008 108.087 40.536C108.615 41.064 108.879 41.688 108.879 42.408C108.879 43.128 108.615 43.74 108.087 44.244C107.559 44.748 106.923 45 106.179 45H96.6749C95.8349 45 95.1269 44.724 94.5509 44.172C93.9749 43.62 93.6869 42.912 93.6869 42.048V22.032C93.6869 21.192 93.9629 20.484 94.5149 19.908C95.0669 19.332 95.7749 19.044 96.6389 19.044H105.999C106.719 19.044 107.331 19.296 107.835 19.8C108.339 20.304 108.591 20.928 108.591 21.672C108.591 22.416 108.339 23.052 107.835 23.58C107.331 24.108 106.719 24.372 105.999 24.372H99.5189V29.34H105.351C106.119 29.34 106.767 29.592 107.295 30.096C107.823 30.6 108.087 31.224 108.087 31.968C108.087 32.712 107.823 33.336 107.295 33.84C106.767 34.344 106.119 34.596 105.351 34.596H99.5549V39.744Z" fill="#2C2C2C"/>
</svg>
