<svg width="46" height="46" viewBox="0 0 46 46" fill="none" xmlns="http://www.w3.org/2000/svg">
<path d="M23.3833 24.9167L21.6583 26.6417C21.307 26.9931 21.1313 27.4403 21.1313 27.9833C21.1313 28.5264 21.307 28.9736 21.6583 29.325C22.0097 29.6764 22.457 29.8521 23 29.8521C23.5431 29.8521 23.9903 29.6764 24.3417 29.325L29.325 24.3417C29.7083 23.9583 29.9 23.5111 29.9 23C29.9 22.4889 29.7083 22.0417 29.325 21.6583L24.3417 16.675C23.9903 16.3236 23.5431 16.1479 23 16.1479C22.457 16.1479 22.0097 16.3236 21.6583 16.675C21.307 17.0264 21.1313 17.4736 21.1313 18.0167C21.1313 18.5597 21.307 19.0069 21.6583 19.3583L23.3833 21.0833H17.25C16.707 21.0833 16.2514 21.2673 15.8834 21.6353C15.5154 22.0033 15.3321 22.4582 15.3333 23C15.3333 23.5431 15.5173 23.9986 15.8853 24.3666C16.2533 24.7346 16.7082 24.9179 17.25 24.9167H23.3833ZM23 42.1667C20.3486 42.1667 17.857 41.6632 15.525 40.6563C13.1931 39.6494 11.1646 38.2841 9.43959 36.5604C7.71459 34.8354 6.34929 32.8069 5.34368 30.475C4.33807 28.1431 3.83462 25.6514 3.83334 23C3.83334 20.3486 4.33679 17.8569 5.34368 15.525C6.35057 13.1931 7.71587 11.1646 9.43959 9.43958C11.1646 7.71458 13.1931 6.34928 15.525 5.34367C17.857 4.33806 20.3486 3.83461 23 3.83333C25.6514 3.83333 28.1431 4.33678 30.475 5.34367C32.807 6.35056 34.8354 7.71586 36.5604 9.43958C38.2854 11.1646 39.6514 13.1931 40.6583 15.525C41.6651 17.8569 42.168 20.3486 42.1667 23C42.1667 25.6514 41.6632 28.1431 40.6563 30.475C39.6495 32.8069 38.2841 34.8354 36.5604 36.5604C34.8354 38.2854 32.807 39.6514 30.475 40.6582C28.1431 41.6651 25.6514 42.1679 23 42.1667ZM23 38.3333C27.2806 38.3333 30.9063 36.8479 33.8771 33.8771C36.8479 30.9062 38.3333 27.2806 38.3333 23C38.3333 18.7194 36.8479 15.0938 33.8771 12.1229C30.9063 9.15208 27.2806 7.66667 23 7.66667C18.7195 7.66667 15.0938 9.15208 12.1229 12.1229C9.15209 15.0938 7.66668 18.7194 7.66668 23C7.66668 27.2806 9.15209 30.9062 12.1229 33.8771C15.0938 36.8479 18.7195 38.3333 23 38.3333Z" fill="#828282"/>
</svg>
